# xmcd
#
# Track frame offsets: 
#        182
#        19242
#        39345
#        57847
#        71225
#        89342
#        107940
#        120180
#        135680
#        153077
#        170077
#        186945
#        209035
#        238400
#        256737
#
# Disc length: 3680 seconds
#
# Revision: 4
# Processed by: cddbd v1.5.2PL0 Copyright (c) Steve Scherf et al.
# Submitted via: ExactAudioCopy v0.95a4
#
DISCID=d70e5e0f
DTITLE=Peter Himmelman - Synesthesia
DYEAR=1989
DGENRE=Rock
TTITLE0=Synesthesia
TTITLE1=245 Days
TTITLE2=Difficult To Touch
TTITLE3=Tug Of War
TTITLE4=A Million Sides
TTITLE5=Name
TTITLE6=Surrender
TTITLE7=Dirty Reasons
TTITLE8=Babylon
TTITLE9=The Sweetest Revenge
TTITLE10=I Wouldn't Mind
TTITLE11=Speaking Mouth
TTITLE12=Brother Joel
TTITLE13=Second Chance
TTITLE14=Beneath Your Watching Eyes
EXTD=YEAR: 1989 ID3G: 17
EXTT0=
EXTT1=
EXTT2=
EXTT3=
EXTT4=
EXTT5=
EXTT6=
EXTT7=
EXTT8=
EXTT9=
EXTT10=
EXTT11=
EXTT12=
EXTT13=
EXTT14=
PLAYORDER=
